<svg version="1.1" id="Layer_1" xmlns="http://www.w3.org/2000/svg" xmlns:xlink="http://www.w3.org/1999/xlink" x="0px" y="0px"
	 width="100%" viewBox="0 0 1080 1080" enable-background="new 0 0 1080 1080" xml:space="preserve">
<path fill="#F9FAFB" opacity="1.000000" stroke="none" 
	d="
M734.000000,1081.000000 
	C489.361511,1081.000000 245.223022,1081.000000 1.042263,1081.000000 
	C1.042263,721.069702 1.042263,361.139435 1.042263,1.104576 
	C360.888733,1.104576 720.777466,1.104576 1080.833130,1.104576 
	C1080.833130,360.999939 1080.833130,720.999939 1080.833130,1081.000000 
	C965.472351,1081.000000 849.986145,1081.000000 734.000000,1081.000000 
M820.568909,684.809998 
	C820.243835,684.598022 819.918701,684.386047 819.000183,683.806824 
	C813.997620,679.444580 809.067444,680.324646 805.166565,683.483887 
	C799.586609,680.835205 794.530823,682.467468 789.614990,682.014832 
	C789.614990,699.313721 789.614990,716.025879 789.614990,732.699829 
	C794.320007,732.699829 798.700989,732.699829 803.585632,732.699829 
	C803.585632,729.885559 803.585632,727.395935 803.585632,723.963379 
	C808.712158,728.986755 813.567566,729.054382 819.474182,725.922852 
	C822.367554,726.096741 825.260986,726.270569 828.916016,726.731873 
	C833.588013,729.048218 837.889893,728.404968 841.202454,725.443481 
	C846.160950,728.310059 850.988892,726.498779 855.688477,726.984131 
	C855.688477,714.791504 855.862122,703.015991 855.607178,691.249878 
	C855.497742,686.198547 852.279663,682.610229 847.391663,681.988770 
	C842.402344,681.354309 837.250977,681.994141 831.408813,682.005554 
	C829.778931,682.080811 826.794312,681.906067 826.727234,682.269653 
	C825.994751,686.240112 823.021301,685.394836 820.530884,685.474060 
	C820.530884,685.474060 820.459106,685.422852 820.568909,684.809998 
M424.178680,654.993286 
	C502.425568,654.998535 580.672424,655.007080 658.919312,655.000061 
	C663.241638,654.999634 667.563904,654.869934 672.826721,654.955505 
	C698.424194,654.955505 724.021606,654.955505 750.244995,654.955505 
	C750.244995,631.885315 750.244995,609.324036 750.244995,586.524658 
	C773.779419,586.524658 796.683838,586.524658 820.009521,586.524658 
	C820.682678,609.469849 821.348206,632.154602 822.008179,654.650635 
	C847.644714,654.650635 872.702332,654.650635 897.925232,654.650635 
	C897.925232,653.130432 897.930176,651.978943 897.924500,650.827393 
	C897.698730,604.854248 897.395203,558.881409 897.264832,512.907959 
	C897.103210,455.929413 897.101685,398.950439 896.996460,341.971680 
	C896.953979,318.984497 896.820068,295.997498 896.513428,272.180511 
	C894.854614,272.117737 893.195740,272.000275 891.536926,272.000031 
	C822.516602,271.990021 753.496216,271.988220 684.475891,271.998901 
	C681.989929,271.999268 679.503967,272.135803 676.222961,272.513397 
	C675.929077,297.755066 675.635132,322.996704 674.626892,347.855103 
	C674.437134,347.225952 674.217468,346.604095 674.061951,345.966614 
	C669.000732,325.223022 658.198120,308.153931 640.174744,296.578674 
	C614.034729,279.790619 585.070435,272.007080 554.028015,271.969025 
	C530.707092,271.940399 507.386078,271.951660 484.065155,271.985382 
	C461.747894,272.017639 439.430725,272.101746 416.162292,272.013062 
	C361.055786,272.013062 305.949280,272.013062 251.056122,272.013062 
	C251.056122,399.976593 251.056122,527.368103 251.056122,655.020020 
	C253.042236,655.020020 254.689453,655.020203 256.336670,655.020020 
	C309.833527,655.015503 363.330383,655.013245 416.827240,654.997314 
	C418.984314,654.996704 421.141296,654.865845 424.178680,654.993286 
M748.015686,675.626648 
	C748.015686,674.509399 748.015686,673.392151 748.015686,672.294983 
	C743.700684,672.294983 739.820862,672.294983 735.730957,672.294983 
	C735.730957,679.662720 735.730957,686.704773 735.730957,693.746887 
	C735.525085,693.792969 735.319275,693.839111 735.113403,693.885193 
	C732.674438,686.595337 730.235413,679.305542 727.862244,672.212402 
	C723.662292,672.212402 719.897827,672.212402 716.100525,672.212402 
	C716.100525,690.521118 716.100525,708.575378 716.100525,726.828979 
	C720.059570,726.828979 723.801025,726.828979 727.909546,726.828979 
	C727.909546,719.583862 727.909546,712.536621 727.909546,705.489441 
	C728.199951,705.435608 728.490417,705.381775 728.780823,705.328003 
	C730.986633,712.472717 733.192505,719.617432 735.391479,726.740112 
	C739.622437,726.740112 743.696960,726.740112 748.015869,726.740112 
	C748.015869,709.838135 748.015869,693.219604 748.015686,675.626648 
M431.480042,727.018677 
	C433.887299,727.018677 436.294586,727.018677 438.902008,727.018677 
	C436.027679,708.273682 433.268402,690.278992 430.487061,672.140259 
	C423.565460,672.140259 416.965240,672.140259 409.977600,672.140259 
	C407.495239,690.352356 405.023956,708.483582 402.527313,726.800537 
	C407.846436,726.800537 412.432251,726.800537 417.233612,726.800537 
	C417.482422,723.505310 417.715240,720.421997 417.944183,717.390015 
	C420.183197,717.390015 422.048584,717.390015 423.890717,717.390015 
	C424.045074,720.685059 424.183105,723.631592 424.341766,727.018005 
	C426.631287,727.018005 428.584961,727.018005 431.480042,727.018677 
M672.318298,732.457092 
	C678.358582,732.632507 684.514343,733.608093 690.406616,732.757812 
	C696.277527,731.910706 698.822876,727.560913 698.902405,721.520691 
	C698.976929,715.859680 698.968506,710.197388 698.976929,704.535706 
	C698.987915,697.106873 698.979614,689.678040 698.979614,681.617859 
	C693.715454,683.102844 688.409119,679.624329 684.295227,684.442017 
	C680.755615,680.976990 676.569397,679.789856 671.994446,681.827515 
	C667.239563,683.945312 666.987000,688.425659 666.994751,692.871460 
	C667.005493,699.032776 666.877258,705.198364 667.065979,711.354248 
	C667.296692,718.878296 673.441711,722.963989 680.630432,720.533447 
	C682.003174,720.069336 683.303833,719.391968 685.624512,718.384766 
	C684.933411,721.304016 684.429321,723.433105 683.925293,725.562256 
	C682.640320,724.762024 681.378479,723.920166 680.056580,723.186646 
	C679.653625,722.963013 679.085510,722.985474 678.592651,722.983521 
	C674.788696,722.968567 670.984741,722.975281 667.180725,722.975281 
	C666.783997,723.385132 666.387268,723.794983 665.990540,724.204834 
	C667.874329,726.821655 669.758057,729.438477 672.318298,732.457092 
M658.266907,727.026611 
	C659.530396,726.933167 660.793823,726.839783 662.178894,726.737366 
	C662.178894,714.635193 662.385681,702.840759 662.112366,691.057495 
	C661.899719,681.886475 655.077515,678.258667 647.114563,682.704590 
	C646.439453,683.081482 645.690857,683.841797 645.084595,683.745117 
	C640.364380,682.992310 635.670715,682.072937 630.728638,681.160645 
	C630.728638,697.203064 630.728638,712.024780 630.728638,726.815735 
	C635.430603,726.815735 639.703308,726.815735 644.303162,726.815735 
	C644.303162,724.460144 644.288879,722.316345 644.305603,720.172729 
	C644.375549,711.196899 644.381958,702.219360 644.601807,693.247070 
	C644.638977,691.732239 645.611328,690.240295 646.151672,688.737793 
	C646.816528,688.883484 647.481384,689.029175 648.146240,689.174805 
	C648.146240,701.691956 648.146240,714.209106 648.146240,727.029907 
	C651.717407,727.029907 654.527161,727.029907 658.266907,727.026611 
M575.325012,694.517639 
	C575.325012,705.283386 575.325012,716.049072 575.325012,726.885498 
	C580.301880,726.885498 584.609070,726.885498 589.292053,726.885498 
	C589.292053,717.254517 589.134155,707.773682 589.382935,698.303528 
	C589.463562,695.237122 590.610657,692.198730 591.269836,689.147522 
	C591.961853,692.095886 593.171692,695.030396 593.250549,697.995117 
	C593.505737,707.596008 593.345886,717.208008 593.345886,726.712524 
	C598.276428,726.712524 602.677795,726.712524 607.137024,726.712524 
	C607.137024,714.388184 607.325256,702.405334 607.073120,690.431702 
	C606.894958,681.972717 599.893860,678.385315 592.409546,682.556274 
	C591.653320,682.977844 590.769836,683.650818 590.034058,683.551392 
	C585.284546,682.909241 580.559814,682.084717 575.323242,681.238647 
	C575.323242,686.245361 575.323242,689.886292 575.325012,694.517639 
M356.983337,703.516602 
	C356.993896,707.181702 356.866333,710.853394 357.042786,714.510498 
	C357.455658,723.067139 361.745422,727.474792 369.953766,728.000549 
	C381.026337,728.709717 387.252808,725.230225 388.188721,716.371948 
	C389.039124,708.323242 388.952271,700.061462 388.208344,691.992249 
	C387.543793,684.784058 381.525482,681.063721 372.758606,680.987671 
	C363.992096,680.911621 359.182953,684.129517 357.735504,691.619629 
	C357.048981,695.172241 357.207916,698.888245 356.983337,703.516602 
M517.838074,685.445679 
	C514.183838,689.436951 514.736816,694.139343 515.182617,698.689331 
	C519.646729,698.689331 523.715881,698.689331 527.945984,698.689331 
	C527.945984,696.166565 527.791626,693.994568 528.015625,691.862366 
	C528.117004,690.897339 528.969971,690.011353 529.481995,689.089478 
	C530.303040,689.943298 531.611572,690.674011 531.863342,691.671509 
	C533.164856,696.827515 531.990234,698.518372 525.854736,701.049072 
	C514.740601,705.633423 514.750488,705.634216 514.863037,716.893860 
	C514.902161,720.806580 515.001648,724.754944 519.135376,726.784607 
	C523.570435,728.962341 527.815247,728.651428 531.089844,725.364258 
	C536.013184,728.442261 541.002075,726.362244 545.851379,727.078125 
	C545.851379,715.196289 545.893860,703.903809 545.831970,692.612000 
	C545.804504,687.604980 543.426514,683.752380 538.693726,682.257141 
	C531.646912,680.030762 524.594910,679.831238 517.838074,685.445679 
M767.015503,716.089661 
	C767.015503,712.486877 767.015503,708.884094 767.015503,705.025879 
	C770.300781,705.025879 773.100403,705.025940 775.899963,705.025940 
	C778.830688,705.025940 781.761475,705.025879 785.207520,705.025879 
	C784.829773,700.401428 784.845703,696.401001 784.117371,692.541077 
	C782.528748,684.122192 776.063660,680.123108 766.116516,680.992493 
	C758.094666,681.693542 753.379211,686.422363 753.086731,694.587952 
	C752.848694,701.234924 752.960693,707.899597 753.090149,714.552979 
	C753.200073,720.201599 755.715759,724.702698 761.088135,726.639832 
	C767.178528,728.835999 773.594421,729.382507 779.203430,725.266602 
	C784.990234,721.020142 785.339478,714.776550 784.676147,708.139526 
	C780.286377,708.139526 776.181763,708.139526 771.938477,708.139526 
	C771.713562,711.261108 771.671875,714.247559 771.193115,717.162231 
	C771.028198,718.165894 769.773438,718.990601 769.016602,719.897095 
	C768.347900,718.928284 767.679199,717.959412 767.015503,716.089661 
M506.985199,685.553955 
	C506.087097,684.818115 505.259613,683.967590 504.279999,683.363953 
	C494.283936,677.204651 480.692719,681.898315 479.422729,692.543457 
	C478.464478,700.575562 478.936646,708.841431 479.440491,716.961792 
	C479.751526,721.974609 483.057861,725.451050 487.989258,726.946716 
	C502.040741,731.208374 513.351746,723.891724 510.362762,708.146179 
	C506.302612,708.146179 502.207123,708.146179 497.948639,708.146179 
	C497.741425,711.244629 497.723480,714.218506 497.251343,717.118469 
	C497.083954,718.146790 495.810730,718.994934 495.042297,719.925354 
	C494.362854,718.972107 493.154388,718.049500 493.097198,717.060303 
	C492.870544,713.139709 493.004028,709.198303 493.004028,704.804810 
	C499.268890,704.804810 505.001587,704.804810 512.344238,704.804810 
	C510.586853,698.011047 509.045959,692.054260 506.985199,685.553955 
M295.877991,711.497498 
	C295.877991,716.587524 295.877991,721.677490 295.877991,726.729004 
	C304.564545,726.729004 312.642273,726.729004 320.693939,726.729004 
	C320.693939,723.029114 320.693939,719.622131 320.693939,715.805847 
	C317.160248,715.805847 313.901642,715.805847 310.621155,715.805847 
	C310.621155,711.658325 310.621155,707.942505 310.621155,703.919373 
	C313.616638,703.919373 316.235809,703.919373 319.086060,703.919373 
	C319.086060,700.208984 319.086060,696.812683 319.086060,693.171631 
	C316.144623,693.028809 313.396545,692.895447 310.637787,692.761536 
	C310.637787,689.334595 310.637787,686.278442 310.637787,682.801270 
	C313.915497,682.801270 316.835999,682.801270 319.626831,682.801270 
	C319.626831,678.960083 319.626831,675.554443 319.626831,672.267334 
	C311.535126,672.267334 303.776550,672.267334 295.877960,672.267334 
	C295.877960,685.202881 295.877960,697.850830 295.877991,711.497498 
M468.290771,687.502197 
	C468.290771,682.415527 468.290771,677.328857 468.290771,672.298828 
	C463.109467,672.298828 458.542908,672.298828 454.227905,672.298828 
	C454.227905,690.704834 454.227905,708.778320 454.227905,726.705444 
	C462.002350,726.705444 469.416168,726.705444 476.728210,726.705444 
	C476.728210,722.967529 476.728210,719.553650 476.728210,715.770752 
	C473.829254,715.770752 471.240143,715.770752 468.292877,715.770752 
	C468.292877,706.430054 468.292877,697.465637 468.290771,687.502197 
M860.297913,722.282715 
	C860.382812,723.740234 860.467712,725.197693 860.560364,726.787659 
	C865.424011,726.787659 869.993774,726.787659 874.690552,726.787659 
	C874.690552,708.477173 874.690552,690.434509 874.690552,672.224976 
	C869.849121,672.224976 865.292419,672.224976 860.293823,672.224976 
	C860.293823,688.770264 860.293823,705.046875 860.297913,722.282715 
M564.349121,712.506897 
	C564.353088,710.341553 564.277039,708.172485 564.375427,706.011475 
	C564.714111,698.574219 565.099854,698.149170 572.463501,696.556946 
	C572.463501,691.485107 572.463501,686.398987 572.463501,680.343811 
	C569.545044,681.977234 567.218994,683.279114 565.213928,684.401306 
	C560.829224,679.547974 555.473267,683.179871 550.566162,681.811401 
	C550.566162,697.200989 550.566162,711.927185 550.566162,726.740723 
	C555.272034,726.740723 559.656250,726.740723 564.344360,726.740723 
	C564.344360,722.128784 564.344360,717.812927 564.349121,712.506897 
M337.021881,697.586792 
	C337.058807,704.733765 337.085693,711.880737 337.136078,719.027649 
	C337.170074,723.848145 339.835785,726.459290 344.416199,726.869995 
	C347.983459,727.189819 351.602386,726.933960 355.408203,726.933960 
	C355.408203,724.487671 355.408203,722.543884 355.408203,720.600098 
	C353.244965,719.588318 351.242981,718.065002 351.184509,716.470459 
	C350.868866,707.862915 351.035034,699.237671 351.035034,690.427246 
	C352.485138,690.140686 353.677032,689.905151 354.869812,689.669434 
	C354.869812,687.393127 354.869812,685.440735 354.869812,683.291992 
	C353.568787,683.062622 352.352570,682.848267 351.216217,682.647888 
	C351.049866,680.251038 350.906372,678.183899 350.774445,676.283020 
	C345.938080,676.283020 341.529999,676.283020 337.207520,676.283020 
	C336.584747,679.138733 338.357208,682.450562 334.284546,683.897827 
	C333.708771,684.102356 333.763123,689.037659 334.419189,689.270935 
	C338.660004,690.778931 336.435760,694.129822 337.021881,697.586792 
M611.322083,695.511719 
	C611.322083,705.936279 611.322083,716.360840 611.322083,726.708740 
	C616.527466,726.708740 621.097046,726.708740 625.641846,726.708740 
	C625.641846,711.660034 625.641846,696.951843 625.641846,682.289551 
	C620.765625,682.289551 616.203003,682.289551 611.322205,682.289551 
	C611.322205,686.584900 611.322205,690.551025 611.322083,695.511719 
M621.373047,679.032288 
	C622.814514,678.945679 624.255920,678.859070 625.655823,678.774963 
	C625.655823,676.351196 625.655823,674.296082 625.655823,672.263184 
	C620.756287,672.263184 616.201904,672.263184 611.661072,672.263184 
	C611.661072,674.648071 611.661072,676.708435 611.661072,679.032898 
	C614.806213,679.032898 617.614807,679.032898 621.373047,679.032288 
M822.592407,681.520081 
	C822.592407,681.520081 822.476746,681.591187 822.592407,681.520081 
z"/>
<path fill="#011942" opacity="1.000000" stroke="none" 
	d="
M896.727783,273.010406 
	C896.820068,295.997498 896.953979,318.984497 896.996460,341.971680 
	C897.101685,398.950439 897.103210,455.929413 897.264832,512.907959 
	C897.395203,558.881409 897.698730,604.854248 897.924500,650.827393 
	C897.930176,651.978943 897.925232,653.130432 897.925232,654.650635 
	C872.702332,654.650635 847.644714,654.650635 822.008179,654.650635 
	C821.348206,632.154602 820.682678,609.469849 820.009521,586.524658 
	C796.683838,586.524658 773.779419,586.524658 750.244995,586.524658 
	C750.244995,609.324036 750.244995,631.885315 750.244995,654.955505 
	C724.021606,654.955505 698.424194,654.955505 672.426758,654.431030 
	C672.276733,632.478699 672.526733,611.050903 672.855225,589.187500 
	C673.314819,546.494446 673.678162,504.236786 674.084412,461.979523 
	C674.304932,439.033264 674.598572,416.087646 674.903137,392.666016 
	C674.997742,384.099731 675.033325,376.009003 675.104004,367.918579 
	C675.161255,361.358337 675.260620,354.798431 675.341248,348.238373 
	C675.635132,322.996704 675.929077,297.755066 676.945923,272.614899 
	C679.652710,272.813751 681.636536,272.995819 683.620300,272.996246 
	C754.656128,273.011475 825.691895,273.009766 896.727783,273.010406 
M791.045471,365.328613 
	C778.699036,359.020966 765.534973,361.211487 752.580811,361.036102 
	C752.580811,401.021332 752.580811,440.417694 752.580811,479.101318 
	C773.196838,479.101318 793.440002,479.101318 813.991577,479.101318 
	C813.991577,476.168732 813.991577,474.191864 813.991577,472.214996 
	C813.992065,449.883179 813.863098,427.550385 814.034302,405.219879 
	C814.168945,387.658264 806.940247,374.466888 791.045471,365.328613 
z"/>
<path fill="#C50C52" opacity="1.000000" stroke="none" 
	d="
M672.776733,589.623047 
	C672.526733,611.050903 672.276733,632.478699 671.956482,654.353516 
	C667.563904,654.869934 663.241638,654.999634 658.919312,655.000061 
	C580.672424,655.007080 502.425568,654.998535 423.653503,654.447693 
	C423.070984,628.645508 423.013611,603.388916 423.253021,577.964600 
	C452.467529,548.383118 481.690247,519.259888 510.135468,489.395996 
	C519.917236,479.126465 528.539673,467.512756 536.244751,455.578888 
	C542.717529,445.553619 541.079407,440.342194 532.778687,431.620270 
	C532.319946,431.138245 531.879333,430.626617 531.362183,430.214294 
	C516.295288,418.202179 501.760437,405.430542 486.016479,394.382050 
	C463.438751,378.537872 439.977844,363.952179 416.908142,348.371490 
	C416.986023,322.663544 417.049744,297.413300 417.113495,272.163086 
	C439.430725,272.101746 461.747894,272.017639 484.065155,271.985382 
	C507.386078,271.951660 530.707092,271.940399 554.028015,271.969025 
	C585.070435,272.007080 614.034729,279.790619 640.174744,296.578674 
	C658.198120,308.153931 669.000732,325.223022 674.061951,345.966614 
	C674.217468,346.604095 674.437134,347.225952 674.984131,348.046753 
	C675.260620,354.798431 675.161255,361.358337 675.104004,367.918579 
	C675.033325,376.009003 674.997742,384.099731 674.570740,392.871002 
	C672.203369,410.852112 669.289246,428.028534 659.556091,442.863831 
	C649.161255,458.707489 638.626221,474.560974 626.852112,489.376892 
	C602.093323,520.532104 576.566284,551.075012 554.237915,584.086548 
	C553.190857,585.634644 552.263306,587.263489 550.805359,589.623047 
	C592.193115,589.623047 632.484924,589.623047 672.776733,589.623047 
z"/>
<path fill="#011942" opacity="1.000000" stroke="none" 
	d="
M416.637878,272.088074 
	C417.049744,297.413300 416.986023,322.663544 416.449005,348.403320 
	C394.251465,348.892883 372.527191,348.892883 350.835876,348.892883 
	C350.835876,373.310974 350.835876,396.927002 350.835876,421.101471 
	C355.600891,421.101471 360.221222,421.070679 364.840973,421.108093 
	C373.395813,421.177368 378.872192,426.580902 378.898590,435.105804 
	C378.945984,450.427795 378.934113,465.750092 378.896454,481.072144 
	C378.876526,489.175751 374.080841,494.046082 365.916992,494.226257 
	C360.967163,494.335510 356.012878,494.246338 350.899750,494.246338 
	C350.899750,522.458191 350.899750,550.026062 350.899750,577.991638 
	C363.080505,577.991638 375.037048,577.973389 386.993561,577.996826 
	C398.981140,578.020325 410.968689,578.085449 422.956238,578.132324 
	C423.013611,603.388916 423.070984,628.645508 423.213318,654.348877 
	C421.141296,654.865845 418.984314,654.996704 416.827240,654.997314 
	C363.330383,655.013245 309.833527,655.015503 256.336670,655.020020 
	C254.689453,655.020203 253.042236,655.020020 251.056122,655.020020 
	C251.056122,527.368103 251.056122,399.976593 251.056122,272.013062 
	C305.949280,272.013062 361.055786,272.013062 416.637878,272.088074 
z"/>
<path fill="#041A41" opacity="1.000000" stroke="none" 
	d="
M748.015747,676.113892 
	C748.015869,693.219604 748.015869,709.838135 748.015869,726.740112 
	C743.696960,726.740112 739.622437,726.740112 735.391479,726.740112 
	C733.192505,719.617432 730.986633,712.472717 728.780823,705.328003 
	C728.490417,705.381775 728.199951,705.435608 727.909546,705.489441 
	C727.909546,712.536621 727.909546,719.583862 727.909546,726.828979 
	C723.801025,726.828979 720.059570,726.828979 716.100525,726.828979 
	C716.100525,708.575378 716.100525,690.521118 716.100525,672.212402 
	C719.897827,672.212402 723.662292,672.212402 727.862244,672.212402 
	C730.235413,679.305542 732.674438,686.595337 735.113403,693.885193 
	C735.319275,693.839111 735.525085,693.792969 735.730957,693.746887 
	C735.730957,686.704773 735.730957,679.662720 735.730957,672.294983 
	C739.820862,672.294983 743.700684,672.294983 748.015686,672.294983 
	C748.015686,673.392151 748.015686,674.509399 748.015747,676.113892 
z"/>
<path fill="#071D43" opacity="1.000000" stroke="none" 
	d="
M431.009338,727.018311 
	C428.584961,727.018005 426.631287,727.018005 424.341766,727.018005 
	C424.183105,723.631592 424.045074,720.685059 423.890717,717.390015 
	C422.048584,717.390015 420.183197,717.390015 417.944183,717.390015 
	C417.715240,720.421997 417.482422,723.505310 417.233612,726.800537 
	C412.432251,726.800537 407.846436,726.800537 402.527313,726.800537 
	C405.023956,708.483582 407.495239,690.352356 409.977600,672.140259 
	C416.965240,672.140259 423.565460,672.140259 430.487061,672.140259 
	C433.268402,690.278992 436.027679,708.273682 438.902008,727.018677 
	C436.294586,727.018677 433.887299,727.018677 431.009338,727.018311 
M421.506989,691.164795 
	C421.248901,689.566711 420.990814,687.968628 420.732727,686.370544 
	C420.581146,686.382507 420.429565,686.394470 420.278015,686.406433 
	C419.442200,693.486145 418.606415,700.565857 417.721710,708.059814 
	C420.052002,707.940613 421.582001,707.862427 423.295929,707.774780 
	C422.707092,702.171326 422.172607,697.085327 421.506989,691.164795 
z"/>
<path fill="#081C41" opacity="1.000000" stroke="none" 
	d="
M671.980042,732.256226 
	C669.758057,729.438477 667.874329,726.821655 665.990540,724.204834 
	C666.387268,723.794983 666.783997,723.385132 667.180725,722.975281 
	C670.984741,722.975281 674.788696,722.968567 678.592651,722.983521 
	C679.085510,722.985474 679.653625,722.963013 680.056580,723.186646 
	C681.378479,723.920166 682.640320,724.762024 683.925293,725.562256 
	C684.429321,723.433105 684.933411,721.304016 685.624512,718.384766 
	C683.303833,719.391968 682.003174,720.069336 680.630432,720.533447 
	C673.441711,722.963989 667.296692,718.878296 667.065979,711.354248 
	C666.877258,705.198364 667.005493,699.032776 666.994751,692.871460 
	C666.987000,688.425659 667.239563,683.945312 671.994446,681.827515 
	C676.569397,679.789856 680.755615,680.976990 684.295227,684.442017 
	C688.409119,679.624329 693.715454,683.102844 698.979614,681.617859 
	C698.979614,689.678040 698.987915,697.106873 698.976929,704.535706 
	C698.968506,710.197388 698.976929,715.859680 698.902405,721.520691 
	C698.822876,727.560913 696.277527,731.910706 690.406616,732.757812 
	C684.514343,733.608093 678.358582,732.632507 671.980042,732.256226 
M681.225220,711.725342 
	C684.479919,714.560425 684.816223,711.579041 684.880371,709.604614 
	C685.074341,703.635498 684.992615,697.654419 684.865112,691.681213 
	C684.844971,690.735413 684.031433,689.806519 683.584717,688.869873 
	C682.986450,688.894836 682.388123,688.919739 681.789795,688.944702 
	C680.056580,696.105347 681.341675,703.558594 681.225220,711.725342 
z"/>
<path fill="#0B2046" opacity="1.000000" stroke="none" 
	d="
M818.626709,725.833130 
	C813.567566,729.054382 808.712158,728.986755 803.585632,723.963379 
	C803.585632,727.395935 803.585632,729.885559 803.585632,732.699829 
	C798.700989,732.699829 794.320007,732.699829 789.614990,732.699829 
	C789.614990,716.025879 789.614990,699.313721 789.614990,682.014832 
	C794.530823,682.467468 799.586609,680.835205 805.166565,683.483887 
	C809.067444,680.324646 813.997620,679.444580 819.379028,684.237915 
	C819.991638,684.920288 820.225403,685.171570 820.459106,685.422852 
	C820.459106,685.422852 820.530884,685.474060 820.560852,685.940491 
	C820.704224,697.762024 820.919922,709.117981 820.825500,720.471313 
	C820.810608,722.264526 819.394775,724.046143 818.626709,725.833130 
M803.244629,704.500549 
	C803.300598,708.656921 803.232361,712.821289 803.500671,716.963928 
	C803.567017,717.987183 804.726746,718.939636 805.383728,719.924622 
	C805.980591,718.923462 807.076782,717.931641 807.095703,716.919739 
	C807.251343,708.603821 807.267212,700.283142 807.141479,691.966736 
	C807.126770,690.992432 805.996155,690.034912 805.382935,689.069641 
	C804.720337,690.060242 803.558960,691.014709 803.484314,692.047791 
	C803.209045,695.855469 803.293579,699.689148 803.244629,704.500549 
z"/>
<path fill="#0B2046" opacity="1.000000" stroke="none" 
	d="
M657.801880,727.028259 
	C654.527161,727.029907 651.717407,727.029907 648.146240,727.029907 
	C648.146240,714.209106 648.146240,701.691956 648.146240,689.174805 
	C647.481384,689.029175 646.816528,688.883484 646.151672,688.737793 
	C645.611328,690.240295 644.638977,691.732239 644.601807,693.247070 
	C644.381958,702.219360 644.375549,711.196899 644.305603,720.172729 
	C644.288879,722.316345 644.303162,724.460144 644.303162,726.815735 
	C639.703308,726.815735 635.430603,726.815735 630.728638,726.815735 
	C630.728638,712.024780 630.728638,697.203064 630.728638,681.160645 
	C635.670715,682.072937 640.364380,682.992310 645.084595,683.745117 
	C645.690857,683.841797 646.439453,683.081482 647.114563,682.704590 
	C655.077515,678.258667 661.899719,681.886475 662.112366,691.057495 
	C662.385681,702.840759 662.178894,714.635193 662.178894,726.737366 
	C660.793823,726.839783 659.530396,726.933167 657.801880,727.028259 
z"/>
<path fill="#0B2046" opacity="1.000000" stroke="none" 
	d="
M575.324097,694.022461 
	C575.323242,689.886292 575.323242,686.245361 575.323242,681.238647 
	C580.559814,682.084717 585.284546,682.909241 590.034058,683.551392 
	C590.769836,683.650818 591.653320,682.977844 592.409546,682.556274 
	C599.893860,678.385315 606.894958,681.972717 607.073120,690.431702 
	C607.325256,702.405334 607.137024,714.388184 607.137024,726.712524 
	C602.677795,726.712524 598.276428,726.712524 593.345886,726.712524 
	C593.345886,717.208008 593.505737,707.596008 593.250549,697.995117 
	C593.171692,695.030396 591.961853,692.095886 591.269897,689.147522 
	C590.610657,692.198730 589.463562,695.237122 589.382935,698.303528 
	C589.134155,707.773682 589.292053,717.254517 589.292053,726.885498 
	C584.609070,726.885498 580.301880,726.885498 575.325012,726.885498 
	C575.325012,716.049072 575.325012,705.283386 575.324097,694.022461 
z"/>
<path fill="#071D43" opacity="1.000000" stroke="none" 
	d="
M356.983582,703.023438 
	C357.207916,698.888245 357.048981,695.172241 357.735504,691.619629 
	C359.182953,684.129517 363.992096,680.911621 372.758606,680.987671 
	C381.525482,681.063721 387.543793,684.784058 388.208344,691.992249 
	C388.952271,700.061462 389.039124,708.323242 388.188721,716.371948 
	C387.252808,725.230225 381.026337,728.709717 369.953766,728.000549 
	C361.745422,727.474792 357.455658,723.067139 357.042786,714.510498 
	C356.866333,710.853394 356.993896,707.181702 356.983582,703.023438 
M374.875549,716.916443 
	C374.602814,707.604675 375.660858,698.194580 373.991058,687.669983 
	C372.199188,689.321228 371.347565,689.736877 371.340240,690.166992 
	C371.182129,699.466675 371.089905,708.767944 371.100769,718.068787 
	C371.101471,718.681885 372.027466,719.294006 372.523041,719.906555 
	C373.278534,719.205261 374.034058,718.503967 374.875549,716.916443 
z"/>
<path fill="#081C41" opacity="1.000000" stroke="none" 
	d="
M518.104370,685.174927 
	C524.594910,679.831238 531.646912,680.030762 538.693726,682.257141 
	C543.426514,683.752380 545.804504,687.604980 545.831970,692.612000 
	C545.893860,703.903809 545.851379,715.196289 545.851379,727.078125 
	C541.002075,726.362244 536.013184,728.442261 531.089844,725.364258 
	C527.815247,728.651428 523.570435,728.962341 519.135376,726.784607 
	C515.001648,724.754944 514.902161,720.806580 514.863037,716.893860 
	C514.750488,705.634216 514.740601,705.633423 525.854736,701.049072 
	C531.990234,698.518372 533.164856,696.827515 531.863342,691.671509 
	C531.611572,690.674011 530.303040,689.943298 529.481995,689.089478 
	C528.969971,690.011353 528.117004,690.897339 528.015625,691.862366 
	C527.791626,693.994568 527.945984,696.166565 527.945984,698.689331 
	C523.715881,698.689331 519.646729,698.689331 515.182617,698.689331 
	C514.736816,694.139343 514.183838,689.436951 518.104370,685.174927 
M528.043335,718.007996 
	C528.835632,718.645020 529.627930,719.282043 530.420227,719.919128 
	C530.952881,719.044922 531.902039,718.190735 531.945190,717.292969 
	C532.120605,713.643188 532.018127,709.979980 532.018127,705.632568 
	C526.994751,708.901611 527.962708,713.175171 528.043335,718.007996 
z"/>
<path fill="#081C41" opacity="1.000000" stroke="none" 
	d="
M832.170593,682.076111 
	C837.250977,681.994141 842.402344,681.354309 847.391663,681.988770 
	C852.279663,682.610229 855.497742,686.198547 855.607178,691.249878 
	C855.862122,703.015991 855.688477,714.791504 855.688477,726.984131 
	C850.988892,726.498779 846.160950,728.310059 841.202454,725.443481 
	C837.889893,728.404968 833.588013,729.048218 828.322876,726.319214 
	C823.472534,721.646973 824.749512,716.179016 825.203552,711.263123 
	C825.442871,708.671265 827.662598,705.667786 829.860596,703.999878 
	C832.684021,701.857605 836.379272,700.859741 839.707642,699.388611 
	C843.596130,697.669800 841.829651,694.245667 841.849365,691.527283 
	C841.856201,690.596497 840.158997,689.653259 838.291199,687.747009 
	C838.014160,692.459229 837.833130,695.537292 837.644592,698.743591 
	C833.308167,698.743591 829.248596,698.743591 825.239868,698.743591 
	C823.965332,691.494873 825.612122,685.740234 832.170593,682.076111 
M837.945618,717.103943 
	C838.822876,718.035461 839.700134,718.966919 840.577393,719.898438 
	C841.061157,718.936646 841.915344,717.992554 841.962158,717.009949 
	C842.131226,713.460510 842.028687,709.898132 842.028687,705.663269 
	C837.386536,708.603271 837.855103,712.492371 837.945618,717.103943 
z"/>
<path fill="#081C41" opacity="1.000000" stroke="none" 
	d="
M767.013000,716.540161 
	C767.679199,717.959412 768.347900,718.928284 769.016602,719.897095 
	C769.773438,718.990601 771.028198,718.165894 771.193115,717.162231 
	C771.671875,714.247559 771.713562,711.261108 771.938477,708.139526 
	C776.181763,708.139526 780.286377,708.139526 784.676147,708.139526 
	C785.339478,714.776550 784.990234,721.020142 779.203430,725.266602 
	C773.594421,729.382507 767.178528,728.835999 761.088135,726.639832 
	C755.715759,724.702698 753.200073,720.201599 753.090149,714.552979 
	C752.960693,707.899597 752.848694,701.234924 753.086731,694.587952 
	C753.379211,686.422363 758.094666,681.693542 766.116516,680.992493 
	C776.063660,680.123108 782.528748,684.122192 784.117371,692.541077 
	C784.845703,696.401001 784.829773,700.401428 785.207520,705.025879 
	C781.761475,705.025879 778.830688,705.025940 775.899963,705.025940 
	C773.100403,705.025940 770.300781,705.025879 767.015503,705.025879 
	C767.015503,708.884094 767.015503,712.486877 767.013000,716.540161 
M768.458130,689.058472 
	C767.773804,691.851440 767.089478,694.644348 766.250610,698.068237 
	C768.514648,697.860901 769.682007,697.754028 771.667908,697.572205 
	C770.799744,694.421021 770.059570,691.734558 768.458130,689.058472 
z"/>
<path fill="#081C41" opacity="1.000000" stroke="none" 
	d="
M507.245117,685.825684 
	C509.045959,692.054260 510.586853,698.011047 512.344238,704.804810 
	C505.001587,704.804810 499.268890,704.804810 493.004028,704.804810 
	C493.004028,709.198303 492.870544,713.139709 493.097198,717.060303 
	C493.154388,718.049500 494.362854,718.972107 495.042297,719.925354 
	C495.810730,718.994934 497.083954,718.146790 497.251343,717.118469 
	C497.723480,714.218506 497.741425,711.244629 497.948639,708.146179 
	C502.207123,708.146179 506.302612,708.146179 510.362762,708.146179 
	C513.351746,723.891724 502.040741,731.208374 487.989258,726.946716 
	C483.057861,725.451050 479.751526,721.974609 479.440491,716.961792 
	C478.936646,708.841431 478.464478,700.575562 479.422729,692.543457 
	C480.692719,681.898315 494.283936,677.204651 504.279999,683.363953 
	C505.259613,683.967590 506.087097,684.818115 507.245117,685.825684 
M492.978882,692.766418 
	C492.978882,694.373779 492.978882,695.981140 492.978882,698.034973 
	C494.464203,697.891174 495.627655,697.778564 496.906586,697.654785 
	C496.906586,695.885620 496.907990,694.429932 496.905548,692.974243 
	C496.904999,692.647705 497.009155,692.249756 496.862518,692.007141 
	C496.250702,690.994568 495.561554,690.028687 494.900696,689.045715 
	C494.259064,689.995178 493.617432,690.944641 492.978882,692.766418 
z"/>
<path fill="#04193F" opacity="1.000000" stroke="none" 
	d="
M295.877991,710.998169 
	C295.877960,697.850830 295.877960,685.202881 295.877960,672.267334 
	C303.776550,672.267334 311.535126,672.267334 319.626831,672.267334 
	C319.626831,675.554443 319.626831,678.960083 319.626831,682.801270 
	C316.835999,682.801270 313.915497,682.801270 310.637787,682.801270 
	C310.637787,686.278442 310.637787,689.334595 310.637787,692.761536 
	C313.396545,692.895447 316.144623,693.028809 319.086060,693.171631 
	C319.086060,696.812683 319.086060,700.208984 319.086060,703.919373 
	C316.235809,703.919373 313.616638,703.919373 310.621155,703.919373 
	C310.621155,707.942505 310.621155,711.658325 310.621155,715.805847 
	C313.901642,715.805847 317.160248,715.805847 320.693939,715.805847 
	C320.693939,719.622131 320.693939,723.029114 320.693939,726.729004 
	C312.642273,726.729004 304.564545,726.729004 295.877991,726.729004 
	C295.877991,721.677490 295.877991,716.587524 295.877991,710.998169 
z"/>
<path fill="#04193F" opacity="1.000000" stroke="none" 
	d="
M468.291809,688.001709 
	C468.292877,697.465637 468.292877,706.430054 468.292877,715.770752 
	C471.240143,715.770752 473.829254,715.770752 476.728210,715.770752 
	C476.728210,719.553650 476.728210,722.967529 476.728210,726.705444 
	C469.416168,726.705444 462.002350,726.705444 454.227905,726.705444 
	C454.227905,708.778320 454.227905,690.704834 454.227905,672.298828 
	C458.542908,672.298828 463.109467,672.298828 468.290771,672.298828 
	C468.290771,677.328857 468.290771,682.415527 468.291809,688.001709 
z"/>
<path fill="#0D2246" opacity="1.000000" stroke="none" 
	d="
M860.295898,721.803101 
	C860.293823,705.046875 860.293823,688.770264 860.293823,672.224976 
	C865.292419,672.224976 869.849121,672.224976 874.690552,672.224976 
	C874.690552,690.434509 874.690552,708.477173 874.690552,726.787659 
	C869.993774,726.787659 865.424011,726.787659 860.560364,726.787659 
	C860.467712,725.197693 860.382812,723.740234 860.295898,721.803101 
z"/>
<path fill="#0D2246" opacity="1.000000" stroke="none" 
	d="
M564.346741,713.001953 
	C564.344360,717.812927 564.344360,722.128784 564.344360,726.740723 
	C559.656250,726.740723 555.272034,726.740723 550.566162,726.740723 
	C550.566162,711.927185 550.566162,697.200989 550.566162,681.811401 
	C555.473267,683.179871 560.829224,679.547974 565.213928,684.401306 
	C567.218994,683.279114 569.545044,681.977234 572.463501,680.343811 
	C572.463501,686.398987 572.463501,691.485107 572.463501,696.556946 
	C565.099854,698.149170 564.714111,698.574219 564.375427,706.011475 
	C564.277039,708.172485 564.353088,710.341553 564.346741,713.001953 
z"/>
<path fill="#081C41" opacity="1.000000" stroke="none" 
	d="
M337.022095,697.100952 
	C336.435760,694.129822 338.660004,690.778931 334.419189,689.270935 
	C333.763123,689.037659 333.708771,684.102356 334.284546,683.897827 
	C338.357208,682.450562 336.584747,679.138733 337.207520,676.283020 
	C341.529999,676.283020 345.938080,676.283020 350.774445,676.283020 
	C350.906372,678.183899 351.049866,680.251038 351.216217,682.647888 
	C352.352570,682.848267 353.568787,683.062622 354.869812,683.291992 
	C354.869812,685.440735 354.869812,687.393127 354.869812,689.669434 
	C353.677032,689.905151 352.485138,690.140686 351.035034,690.427246 
	C351.035034,699.237671 350.868866,707.862915 351.184509,716.470459 
	C351.242981,718.065002 353.244965,719.588318 355.408203,720.600098 
	C355.408203,722.543884 355.408203,724.487671 355.408203,726.933960 
	C351.602386,726.933960 347.983459,727.189819 344.416199,726.869995 
	C339.835785,726.459290 337.170074,723.848145 337.136078,719.027649 
	C337.085693,711.880737 337.058807,704.733765 337.022095,697.100952 
z"/>
<path fill="#0D2246" opacity="1.000000" stroke="none" 
	d="
M611.322144,695.014404 
	C611.322205,690.551025 611.322205,686.584900 611.322205,682.289551 
	C616.203003,682.289551 620.765625,682.289551 625.641846,682.289551 
	C625.641846,696.951843 625.641846,711.660034 625.641846,726.708740 
	C621.097046,726.708740 616.527466,726.708740 611.322083,726.708740 
	C611.322083,716.360840 611.322083,705.936279 611.322144,695.014404 
z"/>
<path fill="#E5EEF4" opacity="1.000000" stroke="none" 
	d="
M831.789673,682.040833 
	C825.612122,685.740234 823.965332,691.494873 825.239868,698.743591 
	C829.248596,698.743591 833.308167,698.743591 837.644592,698.743591 
	C837.833130,695.537292 838.014160,692.459229 838.291199,687.747009 
	C840.158997,689.653259 841.856201,690.596497 841.849365,691.527283 
	C841.829651,694.245667 843.596130,697.669800 839.707642,699.388611 
	C836.379272,700.859741 832.684021,701.857605 829.860596,703.999878 
	C827.662598,705.667786 825.442871,708.671265 825.203552,711.263123 
	C824.749512,716.179016 823.472534,721.646973 827.942017,726.175476 
	C825.260986,726.270569 822.367554,726.096741 819.050415,725.877930 
	C819.394775,724.046143 820.810608,722.264526 820.825500,720.471313 
	C820.919922,709.117981 820.704224,697.762024 820.539307,685.978943 
	C823.021301,685.394836 825.994751,686.240112 826.727234,682.269653 
	C826.794312,681.906067 829.778931,682.080811 831.789673,682.040833 
z"/>
<path fill="#0B1730" opacity="1.000000" stroke="none" 
	d="
M896.620605,272.595459 
	C825.691895,273.009766 754.656128,273.011475 683.620300,272.996246 
	C681.636536,272.995819 679.652710,272.813751 677.343506,272.462646 
	C679.503967,272.135803 681.989929,271.999268 684.475891,271.998901 
	C753.496216,271.988220 822.516602,271.990021 891.536926,272.000031 
	C893.195740,272.000275 894.854614,272.117737 896.620605,272.595459 
z"/>
<path fill="#0D2246" opacity="1.000000" stroke="none" 
	d="
M620.898254,679.032593 
	C617.614807,679.032898 614.806213,679.032898 611.661072,679.032898 
	C611.661072,676.708435 611.661072,674.648071 611.661072,672.263184 
	C616.201904,672.263184 620.756287,672.263184 625.655823,672.263184 
	C625.655823,674.296082 625.655823,676.351196 625.655823,678.774963 
	C624.255920,678.859070 622.814514,678.945679 620.898254,679.032593 
z"/>
<path fill="#E5EEF4" opacity="1.000000" stroke="none" 
	d="
M820.514038,685.116455 
	C820.225403,685.171570 819.991638,684.920288 819.675781,684.421570 
	C819.918701,684.386047 820.243835,684.598022 820.514038,685.116455 
z"/>
<path fill="#E5EEF4" opacity="1.000000" stroke="none" 
	d="
M822.534546,681.555664 
	C822.476746,681.591187 822.592407,681.520081 822.534546,681.555664 
z"/>
<path fill="#FDFCFE" opacity="1.000000" stroke="none" 
	d="
M672.855225,589.187500 
	C632.484924,589.623047 592.193115,589.623047 550.805359,589.623047 
	C552.263306,587.263489 553.190857,585.634644 554.237915,584.086548 
	C576.566284,551.075012 602.093323,520.532104 626.852112,489.376892 
	C638.626221,474.560974 649.161255,458.707489 659.556091,442.863831 
	C669.289246,428.028534 672.203369,410.852112 674.526855,393.346741 
	C674.598572,416.087646 674.304932,439.033264 674.084412,461.979523 
	C673.678162,504.236786 673.314819,546.494446 672.855225,589.187500 
z"/>
<path fill="#FCFDFD" opacity="1.000000" stroke="none" 
	d="
M791.364624,365.521759 
	C806.940247,374.466888 814.168945,387.658264 814.034302,405.219879 
	C813.863098,427.550385 813.992065,449.883179 813.991577,472.214996 
	C813.991577,474.191864 813.991577,476.168732 813.991577,479.101318 
	C793.440002,479.101318 773.196838,479.101318 752.580811,479.101318 
	C752.580811,440.417694 752.580811,401.021332 752.580811,361.036102 
	C765.534973,361.211487 778.699036,359.020966 791.364624,365.521759 
z"/>
<path fill="#FEFEFE" opacity="1.000000" stroke="none" 
	d="
M423.252991,577.964600 
	C410.968689,578.085449 398.981140,578.020325 386.993561,577.996826 
	C375.037048,577.973389 363.080505,577.991638 350.899750,577.991638 
	C350.899750,550.026062 350.899750,522.458191 350.899750,494.246338 
	C356.012878,494.246338 360.967163,494.335510 365.916992,494.226257 
	C374.080841,494.046082 378.876526,489.175751 378.896454,481.072144 
	C378.934113,465.750092 378.945984,450.427795 378.898590,435.105804 
	C378.872192,426.580902 373.395813,421.177368 364.840973,421.108093 
	C360.221222,421.070679 355.600891,421.101471 350.835876,421.101471 
	C350.835876,396.927002 350.835876,373.310974 350.835876,348.892883 
	C372.527191,348.892883 394.251465,348.892883 416.434875,348.861023 
	C439.977844,363.952179 463.438751,378.537872 486.016479,394.382050 
	C501.760437,405.430542 516.295288,418.202179 531.362183,430.214294 
	C531.879333,430.626617 532.319946,431.138245 532.778687,431.620270 
	C541.079407,440.342194 542.717529,445.553619 536.244751,455.578888 
	C528.539673,467.512756 519.917236,479.126465 510.135468,489.395996 
	C481.690247,519.259888 452.467529,548.383118 423.252991,577.964600 
z"/>
<path fill="#E5EEF4" opacity="1.000000" stroke="none" 
	d="
M421.572571,691.582092 
	C422.172607,697.085327 422.707092,702.171326 423.295929,707.774780 
	C421.582001,707.862427 420.052002,707.940613 417.721710,708.059814 
	C418.606415,700.565857 419.442200,693.486145 420.278015,686.406433 
	C420.429565,686.394470 420.581146,686.382507 420.732727,686.370544 
	C420.990814,687.968628 421.248901,689.566711 421.572571,691.582092 
z"/>
<path fill="#FCFDFD" opacity="1.000000" stroke="none" 
	d="
M681.136108,711.291992 
	C681.341675,703.558594 680.056580,696.105347 681.789795,688.944702 
	C682.388123,688.919739 682.986450,688.894836 683.584717,688.869873 
	C684.031433,689.806519 684.844971,690.735413 684.865112,691.681213 
	C684.992615,697.654419 685.074341,703.635498 684.880371,709.604614 
	C684.816223,711.579041 684.479919,714.560425 681.136108,711.291992 
z"/>
<path fill="#E5EEF4" opacity="1.000000" stroke="none" 
	d="
M803.243774,704.006836 
	C803.293579,699.689148 803.209045,695.855469 803.484314,692.047791 
	C803.558960,691.014709 804.720337,690.060242 805.382935,689.069641 
	C805.996155,690.034912 807.126770,690.992432 807.141479,691.966736 
	C807.267212,700.283142 807.251343,708.603821 807.095703,716.919739 
	C807.076782,717.931641 805.980591,718.923462 805.383789,719.924683 
	C804.726746,718.939636 803.567017,717.987183 803.500671,716.963928 
	C803.232361,712.821289 803.300598,708.656921 803.243774,704.006836 
z"/>
<path fill="#E5EEF4" opacity="1.000000" stroke="none" 
	d="
M374.832550,717.359558 
	C374.034058,718.503967 373.278534,719.205261 372.523071,719.906616 
	C372.027466,719.294006 371.101471,718.681885 371.100769,718.068787 
	C371.089905,708.767944 371.182129,699.466675 371.340240,690.166992 
	C371.347565,689.736877 372.199188,689.321228 373.991058,687.669983 
	C375.660858,698.194580 374.602814,707.604675 374.832550,717.359558 
z"/>
<path fill="#E5EEF4" opacity="1.000000" stroke="none" 
	d="
M527.994141,717.570312 
	C527.962708,713.175171 526.994751,708.901611 532.018127,705.632568 
	C532.018127,709.979980 532.120605,713.643188 531.945190,717.292969 
	C531.902039,718.190735 530.952881,719.044922 530.420227,719.919128 
	C529.627930,719.282043 528.835632,718.645020 527.994141,717.570312 
z"/>
<path fill="#E5EEF4" opacity="1.000000" stroke="none" 
	d="
M837.931030,716.669189 
	C837.855103,712.492371 837.386536,708.603271 842.028687,705.663269 
	C842.028687,709.898132 842.131226,713.460510 841.962158,717.009949 
	C841.915344,717.992554 841.061157,718.936646 840.577393,719.898438 
	C839.700134,718.966919 838.822876,718.035461 837.931030,716.669189 
z"/>
<path fill="#E5EEF4" opacity="1.000000" stroke="none" 
	d="
M768.888794,689.053284 
	C770.059570,691.734558 770.799744,694.421021 771.667908,697.572205 
	C769.682007,697.754028 768.514648,697.860901 766.250610,698.068237 
	C767.089478,694.644348 767.773804,691.851440 768.888794,689.053284 
z"/>
<path fill="#E5EEF4" opacity="1.000000" stroke="none" 
	d="
M492.977356,692.330261 
	C493.617432,690.944641 494.259064,689.995178 494.900696,689.045715 
	C495.561554,690.028687 496.250702,690.994568 496.862518,692.007141 
	C497.009155,692.249756 496.904999,692.647705 496.905548,692.974243 
	C496.907990,694.429932 496.906586,695.885620 496.906586,697.654785 
	C495.627655,697.778564 494.464203,697.891174 492.978882,698.034973 
	C492.978882,695.981140 492.978882,694.373779 492.977356,692.330261 
z"/>
</svg>